# xmcd
#
# Track frame offsets: 
#        150
#        12896
#        27265
#        39850
#        54538
#        72207
#        86100
#        99263
#        121175
#        136826
#        148252
#        160645
#        176417
#        189194
#        201604
#        215516
#        236306
#        253581
#        271087
#        283586
#
# Disc length: 4062 seconds
#
# Revision: 0
# Processed by: cddbd v1.5.2PL0 Copyright (c) Steve Scherf et al.
# Submitted via: ExactAudioCopy v0.99pb5
#
DISCID=100fdc14
DTITLE=Various Artist - To tenkrat v ctyricatom patom
DYEAR=1900
DGENRE=Country
TTITLE0=To tenkrat v ctyricatom patom
TTITLE1=Bismarck
TTITLE2=Lili Marlene
TTITLE3=Kriz z plastiku
TTITLE4=Battledress
TTITLE5=El Alamein
TTITLE6=Oh Rubby
TTITLE7=Hirosima
TTITLE8=Pochod americkych namorniku
TTITLE9=sest bilych koni
TTITLE10=Glann Miller story
TTITLE11=Guadalkanal
TTITLE12=Most pres reku Kwai
TTITLE13=Veteran
TTITLE14=Nejdelsi den
TTITLE15=Jo to jsem jeste zil
TTITLE16=Kdyz v preaze v prvni jarni den nasnezi
TTITLE17=r.a.f.
TTITLE18=Beer barrel polka
TTITLE19=Chvile loucnei
EXTD=
EXTT0=
EXTT1=
EXTT2=
EXTT3=
EXTT4=
EXTT5=
EXTT6=
EXTT7=
EXTT8=
EXTT9=
EXTT10=
EXTT11=
EXTT12=
EXTT13=
EXTT14=
EXTT15=
EXTT16=
EXTT17=
EXTT18=
EXTT19=
PLAYORDER=
